<?xml version="1.0" encoding="UTF-8"?>
<svg width="22px" height="20px" viewBox="0 0 22 20" version="1.1" xmlns="http://www.w3.org/2000/svg" xmlns:xlink="http://www.w3.org/1999/xlink">
    <!-- Generator: Sketch 47.1 (45422) - http://www.bohemiancoding.com/sketch -->
    <title>Icon /  Editor / Video HL</title>
    <desc>Created with Sketch.</desc>
    <defs/>
    <g id="Icon-图标" stroke="none" stroke-width="1" fill="none" fill-rule="evenodd">
        <g id="Artboard" transform="translate(-184.000000, -431.000000)" fill="#1AAD19">
            <path d="M185.5,434 L197.5,434 C198.328427,434 199,434.671573 199,435.5 L199,446.444378 C199,447.272805 198.328427,447.944378 197.5,447.944378 L185.5,447.944378 L185.5,447.944378 C184.671573,447.944378 184,447.272805 184,446.444378 L184,435.5 L184,435.5 C184,434.671573 184.671573,434 185.5,434 L185.5,434 Z M185,435 L185,447 L198,447 L198,435 L185,435 Z M201,443.459706 L201,437.459706 L204.375305,434.759462 C204.806567,434.414452 205.435859,434.484374 205.780869,434.915636 C205.922719,435.092949 206,435.313259 206,435.540331 L206,445.379081 C206,445.931366 205.552285,446.379081 205,446.379081 C204.772929,446.379081 204.552618,446.3018 204.375305,446.15995 L201,443.459706 Z M202,443.316849 L205,445.459706 L205,435.459706 L202,437.602563 L202,443.316849 Z" id="Icon-/--Editor-/-Video"/>
        </g>
    </g>
</svg>